<?xml version="1.0" standalone="no"?>
<!DOCTYPE svg PUBLIC "-//W3C//DTD SVG 20010904//EN"
 "http://www.w3.org/TR/2001/REC-SVG-20010904/DTD/svg10.dtd">
<svg version="1.0" xmlns="http://www.w3.org/2000/svg"
 width="271.000000pt" height="271.000000pt" viewBox="0 0 271.000000 271.000000"
 preserveAspectRatio="xMidYMid meet">
<metadata>
Created by potrace 1.14, written by Peter Selinger 2001-2017
</metadata>
<g transform="translate(0.000000,271.000000) scale(0.100000,-0.100000)"
fill="#000000" stroke="none">
<path d="M853 1621 c-97 -25 -145 -91 -145 -200 0 -124 56 -191 160 -191 48 0
58 4 88 34 19 19 34 45 35 57 0 13 6 -1 12 -31 l12 -55 53 -3 52 -3 0 105 0
106 -110 0 -110 0 0 -40 c0 -38 1 -40 31 -40 27 0 30 -2 19 -15 -15 -18 -64
-20 -78 -2 -36 43 -20 161 24 177 32 13 73 -6 81 -38 5 -21 10 -23 36 -18 16
3 47 6 69 6 39 0 40 0 33 33 -10 45 -39 82 -79 101 -41 19 -138 28 -183 17z"/>
<path d="M1290 1619 c-84 -26 -131 -92 -132 -188 -1 -72 15 -120 50 -154 37
-36 73 -47 146 -47 86 0 143 30 173 90 27 52 24 55 -58 63 -53 5 -57 4 -68
-19 -8 -17 -19 -24 -40 -24 -47 0 -67 42 -56 116 11 79 84 96 100 24 7 -33 16
-35 97 -24 l45 6 -8 36 c-10 44 -37 82 -75 104 -37 22 -128 31 -174 17z"/>
<path d="M1691 1616 c-83 -27 -130 -99 -131 -196 0 -109 67 -190 159 -190 61
0 105 28 122 77 l14 38 5 -55 5 -55 55 0 55 0 3 103 3 102 -116 0 -115 0 0
-40 c0 -38 2 -40 30 -40 32 0 40 -14 14 -24 -52 -20 -84 13 -84 87 0 54 11 82
40 97 27 14 68 -4 80 -36 9 -23 14 -26 41 -20 18 3 47 6 67 6 34 0 35 0 29 36
-7 40 -37 78 -80 100 -41 22 -144 27 -196 10z"/>
<path d="M381 1474 c-34 -43 -25 -114 15 -114 17 0 23 6 26 27 4 39 30 40 87
4 49 -32 97 -39 131 -21 47 25 43 130 -6 130 -17 0 -24 -6 -24 -20 0 -32 -24
-34 -79 -6 -68 35 -123 35 -150 0z"/>
<path d="M2049 1479 c-16 -16 -19 -30 -17 -67 3 -43 5 -47 31 -50 23 -3 27 0
27 23 0 39 23 40 83 6 70 -40 118 -41 146 -5 24 30 27 72 8 98 -17 23 -53 17
-49 -7 5 -29 -24 -30 -84 -3 -69 32 -117 33 -145 5z"/>
</g>
</svg>
